<?xml version="1.0" standalone="no"?>
<!DOCTYPE svg PUBLIC "-//W3C//DTD SVG 20010904//EN"
 "http://www.w3.org/TR/2001/REC-SVG-20010904/DTD/svg10.dtd">
<svg version="1.0" xmlns="http://www.w3.org/2000/svg"
 width="260.000000pt" height="260.000000pt" viewBox="0 0 260.000000 260.000000"
 preserveAspectRatio="xMidYMid meet">
<metadata>
Created by potrace 1.11, written by Peter Selinger 2001-2013
</metadata>
<g transform="translate(0.000000,260.000000) scale(0.100000,-0.100000)"
fill="#000000" stroke="none">
<path d="M800 2113 c-286 -21 -563 -214 -674 -468 -10 -22 -21 -49 -27 -60
-38 -83 -58 -302 -38 -415 47 -265 218 -487 461 -600 130 -60 319 -88 458 -66
73 11 180 46 254 83 l70 35 65 -35 c297 -159 687 -103 929 133 29 29 49 56 46
62 -4 6 -3 8 4 4 19 -12 93 101 143 219 35 83 59 208 59 305 -1 80 -24 207
-49 273 -38 98 -93 191 -106 180 -4 -5 -5 -3 -2 4 8 12 -44 78 -107 136 -58
53 -159 118 -174 112 -7 -3 -11 -1 -8 4 7 10 -66 43 -144 65 -203 57 -449 28
-612 -71 -21 -13 -40 -23 -44 -23 -3 0 -43 18 -87 40 -85 41 -204 75 -294 83
-36 3 -50 1 -46 -7 3 -6 0 -5 -8 2 -7 6 -15 11 -18 10 -4 -1 -26 -3 -51 -5z"/>
</g>
</svg>
